<?xml version="1.0" encoding="utf-8"?>
<!-- Generator: Adobe Illustrator 25.4.1, SVG Export Plug-In . SVG Version: 6.00 Build 0)  -->
<svg version="1.1" id="Capa_1" xmlns="http://www.w3.org/2000/svg" xmlns:xlink="http://www.w3.org/1999/xlink" x="0px" y="0px"
	 viewBox="0 0 595.28 595.28" style="enable-background:new 0 0 595.28 595.28;" xml:space="preserve">
<style type="text/css">
	.st0{fill:#1E1613;}
	.st1{fill:#DB2A2A;}
</style>
<g>
	<path class="st0" d="M267.45,147.72c10.78,1.49,21.57,2.98,32.35,4.47c2.44,0.34,3.22,1.73,3.22,4.14
		c0.03,22.8-0.02,45.6-0.63,68.39c-0.1,3.54-0.11,7.08-0.24,10.62c-0.09,2.4,0.94,3.4,3.37,3.48c5.99,0.18,11.97,0.59,17.95,0.79
		c1.95,0.06,2.42,0.84,2.28,2.69c-0.61,7.87-1.03,15.76-1.67,23.63c-0.21,2.58,0.69,3.89,3.22,4.38c2.12,0.41,4.19,1.13,6.6,1.8
		c-0.2-3.49-0.68-6.85-1.6-10.07c-0.9-3.13-0.31-5.61,1.84-8c4.86-5.43,7-12.01,7.41-19.16c0.23-3.99,0.17-7.99,0.12-11.99
		c-0.04-3.57,0.82-6.83,2.94-9.71c1.07-1.46,1.45-3.04,1.47-4.83c0.14-12.62,0.33-25.25,0.51-37.87c0.01-0.54,0.03-1.09,0.05-1.63
		c0.16-4.58,0.44-4.8,5-3.73c2.12,0.5,4.19,1.19,6.31,1.63c2.25,0.47,2.93,1.76,2.65,3.93c-1.48,11.52-2.6,23.08-3.51,34.67
		c-0.32,4.02,0.43,7.24,4.08,9.6c3.99,2.58,4.49,6.73,3.67,10.93c-1.95,10.04-0.32,19.47,4.23,28.5c3.06,6.06,4.3,12.5,3.98,19.23
		c-0.12,2.59,0.67,3.75,3.43,3.98c6.85,0.58,6.83,0.74,5.67,7.38c-0.7,4.02-1.31,8.06-1.78,12.11c-0.46,3.91,0.72,5.31,4.66,5.76
		c1.43,0.16,2.91,0.18,4.35,0.08c2.2-0.15,2.9,0.76,2.66,2.92c-0.65,5.95-1.52,11.89-1.24,17.91c0.03,0.56-0.34,1.28,0.58,1.77
		c0.66-1.32,0.69-2.73,0.71-4.09c0.02-1.52,0.57-2.31,2.16-2.53c11.41-1.62,22.79-3.38,34.21-4.92c5.03-0.68,5.58,0.03,4.46,4.82
		c-3.19,13.73-5.13,27.63-6.08,41.69c-0.2,2.97,0.34,3.45,3.2,2.57c9.7-2.97,19.39-5.97,29.08-8.97c0.43-0.13,0.82-0.39,1.4-0.06
		c0.01,4.58-0.97,9.11-1.85,13.62c-1.88,9.51-2.45,19.08-1.91,28.73c0.2,3.58-0.86,6.31-3.75,8.5c-3.88,2.94-5.61,7.22-6.8,11.76
		c-3.39,12.88-5.83,26.01-9.65,38.78c-7.54,25.18-28.31,40.97-54.62,41.7c-19.06,0.53-36.08-4.75-49.84-18.38
		c-8.81-8.72-14.09-19.69-18.31-31.19c-2.4-6.55-4.34-13.26-6.19-19.98c-1.19-4.32-3.23-8.25-5.37-12.15
		c-0.65-1.18-1.58-2.13-2.75-2.53c-4.22-1.43-8.57-1.25-12.85-0.37c-1.77,0.37-2.32,2.05-2.93,3.63
		c-3.34,8.55-5.17,17.55-8.04,26.24c-4.61,13.95-11.74,26.47-21.47,37.5c-8.9,10.09-20.15,15.34-33.4,16.89
		c-15.16,1.77-29.86,0.44-43.99-5.62c-10.53-4.52-18-11.96-22.23-22.66c-6-15.21-10.7-30.81-13.95-46.82
		c-1.1-5.44-3.46-10.11-7.06-14.17c-4.9-5.52-7.15-11.86-6.6-19.24c0.48-6.43-1.43-12.58-2.42-18.84
		c-1.31-8.33-2.67-16.65-4.13-24.95c-0.33-1.89,0.71-1.64,1.79-1.56c13.04,0.97,26.07,1.95,39.11,2.93
		c5.25,0.39,10.5,0.73,15.74,1.23c1.61,0.15,1.78-0.42,1.69-1.78c-0.46-7.25-1.74-14.41-2.58-21.62c-0.54-4.6-1.18-9.18-1.8-13.77
		c-0.22-1.64,0.32-3.01,1.33-4.28c9.93-12.5,19.87-25,29.75-37.54c1.11-1.4,1.68-1.53,2.96-0.07c7.16,8.2,14.45,16.29,21.7,24.42
		c0.46,0.52,0.89,1.07,1.33,1.61c0.21-0.12,0.42-0.24,0.63-0.35c-0.82-4.84-1.67-9.68-2.45-14.54c-1.67-10.38-3.86-20.69-4.95-31.16
		c-0.11-1.08-0.12-2.18-0.26-3.26c-0.3-2.21,0.65-3.32,2.8-3.86c4.48-1.13,8.88-2.62,13.39-3.6c2.92-0.64,3.87-1.98,3.47-4.9
		c-1.46-10.88-2.74-21.78-4.15-32.67c-0.96-7.37-2.01-14.74-3.03-22.1c0.22-0.95,1.09-1.39,1.63-2.09c2.35-3.05,2.29-4.11-0.36-6.78
		c-1.14-1.15-2.2-2.36-2.93-3.82c-0.72-5.31-1.45-10.63-2.17-15.94c0.41-0.68,1.01-0.56,1.66-0.48c2.4,0.28,4.81,0.8,7.2,0.7
		c3.42-0.14,4.54,1.68,4.84,4.59c-0.99-0.02-1.99-0.01-2.98-0.06c-1.84-0.09-2.7,0.64-2.45,2.58c1.33,10.47,2.74,20.92,4.86,31.27
		c0.05,0.72,0.04,1.45,0.15,2.16c2.39,15.87,4.8,31.75,7.2,47.62c0.48,3.18,0.11,3.76-3.11,4.48c-4.07,0.91-8.15,1.76-12.22,2.66
		c-3.34,0.74-3.76,1.32-3.43,4.61c0.15,1.44,0.39,2.87,0.61,4.31c3.03,19.81,6.07,39.62,9.09,59.44c0.96,6.27,1.94,12.55,2.75,18.84
		c0.43,3.4-0.3,4.31-2.96,4.67c-3.64,0.49-4.35,0.01-4.95-3.54c-0.67-3.93-1.32-7.87-1.88-11.82c-0.7-4.86-1.54-9.42-5.22-13.34
		c-7.82-8.33-15.18-17.11-22.72-25.7c-2.7-3.08-2.71-3.09-5.36,0.23c-6.18,7.73-12.08,15.69-18.61,23.11
		c-4.04,4.59-5.12,9.36-4.46,15.22c1.1,9.83,1.67,19.72,2.5,29.58c0.19,2.32-0.55,3.57-3.1,3.68c-7.35,0.31-14.69,0.76-22.04,1.14
		c-7.8,0.4-15.6,0.79-23.4,1.17c-2.08,0.1-3.86,0.37-3.24,3.26c1.03,4.78,1.94,9.59,2.89,14.4c0.31,1.55,1.13,2.15,2.72,1.7
		c8.03-2.29,16.22-3.88,24.37-5.63c11.79-2.53,23.58-5.47,35.76-4.87c19.81,0.98,39.39,3.85,58.47,9.27
		c20.65,5.87,41.35,7.21,62.43,2.94c15.73-3.18,31.2-7.54,47.07-10.01c10.22-1.59,20.47-3.22,30.88-1.85
		c6.84,0.9,13.66,1.89,20.49,2.85c3.03,0.42,3.49,0.08,3.77-2.96c0.31-3.34,0.58-6.69,0.89-10.03c0.8-8.68,1.59-17.36,2.41-26.03
		c0.19-1.96-0.32-3.1-2.56-3.19c-7.17-0.28-14.33-0.7-21.5-0.99c-3.47-0.14-4,0.43-4.31,3.99c-0.55,6.24-1.1,12.48-1.69,18.71
		c-0.11,1.14,0.02,2.48-1.18,3.16c-3.59,2.04-8.63-0.56-9.12-4.65c-1.14-9.47-1.49-19-2.2-28.5c-0.32-4.22-0.63-4.5-4.73-4.27
		c-3.66,0.21-4.4-0.4-4.39-4.03c0.02-6.72,0.13-13.44,0.21-20.16c0.05-4.53,0.04-4.6-4.4-4.82c-1.84-0.09-3.01-0.64-2.85-2.7
		c0.54-6.96-0.93-13.57-2.66-20.31c-2.47-9.63-3.75-19.57-5.75-29.33c-0.85-4.15-0.85-8.5-2.55-12.46
		c-1.02-2.38-1.65-4.77-1.65-7.37c0.01-9.63-0.02-19.26-0.04-28.89c0-1.59,0.04-3.19-1.06-4.99c-0.85,2.4-0.9,4.53-0.91,6.63
		c-0.08,9.72-0.09,19.44-0.14,29.16c-0.01,1.17,0.16,2.38-0.59,3.42c-1.6,2.24-1.88,4.86-2.1,7.49c-0.4,4.7-0.66,9.42-1.24,14.1
		c-1.07,8.65-2.32,17.29-6.47,25.13c-1.7,3.22-1.96,6.55-1.47,10.03c0.18,1.26,0.47,2.5,0.64,3.75c0.34,2.46-0.46,3.18-2.91,2.61
		c-2.03-0.47-4.02-1.1-6.06-1.51c-2.83-0.56-3.03-0.33-2.5,2.4c0.51,2.58,1.04,5.15,1.58,7.73c1.55,7.27,3.11,14.53,4.65,21.81
		c0.6,2.82,0.35,3.1-2.63,2.97c-1.81-0.08-3.63-0.22-5.43-0.39c-3.22-0.3-3.74,0.12-3.41,3.4c0.91,9.03,1.95,18.05,2.83,27.08
		c0.7,7.11,1.64,6.25-6.16,6.34c-1.99,0.02-2.56-0.84-2.5-2.62c0.4-11.89,0.78-23.78,1.17-35.67c0.7-21.7,1.25-43.39,1.5-65.1
		c0.03-2.53-1.06-3.3-3.42-3.36c-4.99-0.13-9.98-0.45-14.96-0.71c-4.06-0.21-4.13-0.22-4.21-4.16c-0.52-25.51-1.51-51.02-1.41-76.54
		c0.01-2.4-0.55-3.57-3.25-3.84c-10.74-1.07-21.46-2.38-32.19-3.6c0.1-1.73-0.5-4.14,2-4.32
		C264.3,150.38,265.91,149.29,267.45,147.72z M205.39,487.13c21.26-0.14,37.05-7.17,48.02-23.38
		c10.19-15.06,16.07-31.81,18.21-49.81c1.4-11.72-2.3-21.28-13.07-27.34c-10.17-5.72-21.05-9.25-32.63-10.44
		c-15.95-1.64-31.68,0.37-47.32,3.37c-2.4,0.46-4.75,1.17-7.09,1.86c-13.8,4.05-20.17,13.09-19.51,27.55
		c0.77,16.93,3.47,33.49,9.18,49.51c4.14,11.6,11.17,20.45,23.03,24.8C191.68,485.99,199.49,487.05,205.39,487.13z M374.92,375.52
		c-16.24-0.06-28.82,2.7-40.89,7.85c-16.21,6.92-22.32,18.71-18.78,36.09c2.7,13.23,7.26,25.85,13.59,37.72
		c8.51,15.95,21.61,25.98,39.6,29.37c9.06,1.71,17.9,0.16,26.74-1.36c12.17-2.1,20.99-8.95,26.87-19.69
		c3.51-6.42,5.33-13.46,7.06-20.5c3.29-13.42,5.96-26.91,4.75-40.87c-1.06-12.17-7.29-20.15-19.19-23.01
		C400.62,377.74,386.27,376.2,374.92,375.52z M140.27,393.46c3.92,0.06,7.26-2.77,7.29-6.17c0.03-3.35-3.02-6.03-6.98-6.14
		c-3.98-0.12-7.38,2.61-7.44,5.97C133.07,390.54,136.3,393.4,140.27,393.46z M442.32,393.94c4.08,0.01,7.28-2.72,7.2-6.17
		c-0.07-3.34-3.49-6.19-7.35-6.13c-3.77,0.05-6.98,2.88-7.01,6.16C435.14,391.39,438.1,393.93,442.32,393.94z M427.23,370.29
		c4.46,1.43,8.94,2.79,13.37,4.3c1.79,0.61,2.54,0.04,2.83-1.69c0.58-3.47,0.08-4.97-1.97-4.93
		C436.66,368.1,431.88,368.47,427.23,370.29z"/>
	<path class="st1" d="M235.2,164.91c0.74,1.46,1.79,2.67,2.93,3.82c2.66,2.67,2.71,3.73,0.36,6.78c-0.54,0.7-1.41,1.15-1.63,2.09
		c-1.99,0.61-2.5,2.4-3.18,4.04c-1.27,3.05-4.64,5.48-7.5,5.41c-2.5-0.06-3.55-1.66-2.24-3.75c2.07-3.32,1.53-6.34-0.09-9.72
		c-3.8-7.91-7.28-15.98-10.89-23.98c-0.04-0.08-0.08-0.17-0.1-0.25c-0.55-1.98-3.25-3.52-1.69-5.9c1.85-2.84,4.65-4.56,8.05-4.96
		c2.54-0.3,4.96-1.09,7.45-1.52c1.5-0.26,2.14-1.08,2.52-2.42c1.85-6.51,4.99-12.7,4.75-19.72c-0.04-1.3,0.71-2.44,1.37-3.5
		c1.51-2.42,1.29-4.73-0.49-6.77c-2.3-2.64-2.96-5.85-3.44-9.11c-0.1-0.66,0.86-1.45,1.24-2.22c1.79-3.6,5.28-4.84,8.69-5.95
		c2.21-0.72,3.98,0.63,5.32,2.4c1.7,2.23,2.52,4.83,2.83,7.54c0.28,2.42,1.46,3.47,3.83,3.71c3.21,0.33,5.12,2.51,5.38,5.6
		c0.7,8.22,2.25,16.3,4.64,24.18c1.31,4.32,1.8,8.89,3.87,12.98c0.64,1.27,0.12,2.68,0.26,4.02c-1.54,1.57-3.15,2.66-5.58,2.84
		c-2.5,0.18-1.89,2.59-2,4.32c-3.26,6.64-5.21,13.53-3.73,20.98c0.56,2.79-0.03,5.16-1.75,7.33c-0.86,0.48-1.69,1.05-2.6,1.44
		c-3.22,1.38-5.46,0-5.81-3.4c-0.42-4.03,0.19-7.96,1.06-11.85c1.17-5.23,0.49-10.41-0.31-15.6c-0.3-2.91-1.42-4.73-4.84-4.59
		c-2.39,0.1-4.8-0.42-7.2-0.7c-0.65-0.08-1.25-0.2-1.66,0.48c-0.43-0.11-0.87-0.34-1.29-0.31c-3.33,0.24-5.22,0.18-3.77,5.02
		C229.34,158.26,232.72,161.22,235.2,164.91z"/>
</g>
</svg>
